# xmcd
#
# Track frame offsets: 
#        150
#        13693
#        26749
#        47418
#        57339
#        76743
#        91992
#        106667
#        124311
#        137474
#        157191
#        173801
#        194962
#        208083
#        226165
#
# Disc length: 3105 seconds
#
# Revision: 0
# Processed by: cddbd v1.5.2PL0 Copyright (c) Steve Scherf et al.
# Submitted via: ExactAudioCopy v1.3
#
DISCID=c50c1f0f
DTITLE=Hannes Otahal - Boogie Woogie Walker
DYEAR=2014
DGENRE=Blues
TTITLE0=Rock The Boogie
TTITLE1=Boogie Woogie Walker
TTITLE2=Dark And Blue
TTITLE3=Monday Struggle
TTITLE4=Boogie Woogie Stomp
TTITLE5=Dupree Blues
TTITLE6=Bear Cap Crawl
TTITLE7=How Long Blues
TTITLE8=Boogie Woogie Jump
TTITLE9=Rhythm Changes Battle
TTITLE10=Country Boogie
TTITLE11=Just My Blues
TTITLE12=Chicago Breakdown
TTITLE13=Axel's Special
TTITLE14=Anita's Dance
EXTD=
EXTT0=
EXTT1=
EXTT2=
EXTT3=
EXTT4=
EXTT5=
EXTT6=
EXTT7=
EXTT8=
EXTT9=
EXTT10=
EXTT11=
EXTT12=
EXTT13=
EXTT14=
PLAYORDER=
